<svg xmlns="http://www.w3.org/2000/svg" viewBox="0 0 100 92" width="100" height="92" fill="none" aria-hidden="true">
  <g stroke="#4a3162" stroke-width="0.9" stroke-linecap="round" stroke-linejoin="round">
            <path d="M 26.00,62.00 L 26.00,65.00 L 27.00,66.00 L 27.00,68.00 L 31.00,72.00 L 34.00,73.00 L 36.00,75.00 L 36.00,79.00 L 35.00,80.00 L 35.00,82.00 L 33.00,85.00 L 33.00,88.00 L 34.00,89.00 L 34.00,91.00 L 34.00,88.00 L 33.00,87.00 L 33.00,85.00 L 36.00,81.00 L 37.00,81.00 L 39.00,83.00 L 41.00,83.00 L 43.00,81.00 L 46.00,81.00 L 49.00,85.00 L 50.00,85.00 L 51.00,86.00 L 53.00,86.00 L 54.00,85.00 L 55.00,85.00 L 60.00,80.00 L 60.00,79.00 L 62.00,76.00 L 63.00,76.00 L 65.00,78.00 L 65.00,79.00 L 69.00,86.00 L 69.00,88.00 L 70.00,89.00 L 70.00,90.00 L 69.00,91.00 L 67.00,91.00 L 70.00,91.00 L 70.00,89.00 L 69.00,88.00 L 68.00,83.00 L 65.00,79.00 L 65.00,76.00 L 68.00,73.00 L 69.00,73.00 L 69.00,72.00 L 71.00,70.00 L 70.00,70.00 L 69.00,71.00 L 69.00,72.00 L 68.00,73.00 L 67.00,73.00 L 65.00,76.00 L 61.00,76.00 L 60.00,79.00 L 53.00,86.00 L 51.00,86.00 L 47.00,82.00 L 47.00,81.00 L 48.00,80.00 L 51.00,80.00 L 52.00,79.00 L 55.00,79.00 L 56.00,78.00 L 55.00,79.00 L 52.00,79.00 L 51.00,80.00 L 48.00,80.00 L 47.00,81.00 L 43.00,81.00 L 42.00,80.00 L 42.00,78.00 L 41.00,77.00 L 41.00,76.00 L 42.00,75.00 L 43.00,75.00 L 44.00,76.00 L 52.00,76.00 L 44.00,76.00 L 43.00,75.00 L 40.00,75.00 L 40.00,77.00 L 39.00,78.00 L 38.00,78.00 L 37.00,77.00 L 36.00,74.00 L 35.00,73.00 L 32.00,72.00 L 27.00,67.00 L 27.00,66.00 L 26.00,65.00" />
            <path d="M 37.00,15.00 L 38.00,15.00 L 40.00,13.00 L 41.00,13.00 L 42.00,12.00 L 44.00,12.00 L 45.00,11.00 L 57.00,11.00 L 58.00,12.00 L 62.00,12.00 L 63.00,13.00 L 66.00,14.00 L 72.00,19.00 L 72.00,20.00 L 74.00,22.00 L 74.00,23.00 L 77.00,27.00 L 77.00,29.00 L 78.00,30.00 L 78.00,33.00 L 79.00,34.00 L 79.00,36.00 L 80.00,37.00 L 80.00,40.00 L 81.00,41.00 L 81.00,43.00 L 82.00,44.00 L 82.00,46.00 L 83.00,47.00 L 83.00,50.00 L 84.00,51.00 L 84.00,61.00 L 83.00,62.00 L 83.00,63.00 L 79.00,67.00 L 78.00,67.00 L 77.00,68.00 L 73.00,68.00 L 72.00,67.00 L 72.00,64.00 L 73.00,63.00 L 73.00,48.00 L 72.00,47.00 L 72.00,45.00 L 71.00,44.00 L 70.00,44.00 L 69.00,43.00 L 66.00,43.00 L 65.00,42.00 L 61.00,42.00 L 60.00,41.00 L 58.00,41.00 L 57.00,40.00 L 55.00,40.00 L 54.00,41.00 L 49.00,41.00 L 48.00,40.00 L 46.00,40.00 L 43.00,38.00 L 38.00,38.00 L 33.00,35.00 L 30.00,35.00 L 30.00,38.00 L 29.00,39.00 L 29.00,50.00 L 28.00,51.00 L 28.00,54.00 L 27.00,55.00 L 27.00,57.00 L 26.00,58.00 L 24.00,58.00 L 22.00,56.00 L 22.00,55.00 L 21.00,54.00 L 21.00,51.00 L 20.00,50.00 L 20.00,49.00 L 21.00,48.00 L 21.00,45.00 L 22.00,44.00 L 22.00,42.00 L 24.00,39.00 L 24.00,37.00 L 25.00,36.00 L 26.00,31.00 L 28.00,28.00 L 28.00,26.00 L 30.00,24.00 L 30.00,23.00 L 32.00,21.00 L 32.00,20.00" />
            <path d="M 36.00,15.00 L 30.00,22.00 L 28.00,26.00 L 28.00,28.00 L 26.00,31.00 L 26.00,33.00 L 25.00,34.00 L 24.00,39.00 L 22.00,42.00 L 22.00,44.00 L 21.00,45.00 L 21.00,48.00 L 20.00,49.00 L 21.00,51.00 L 21.00,54.00 L 22.00,55.00 L 22.00,57.00 L 24.00,59.00 L 26.00,59.00 L 27.00,58.00 L 28.00,51.00 L 30.00,49.00 L 32.00,50.00 L 34.00,49.00 L 35.00,50.00 L 35.00,51.00 L 33.00,52.00 L 35.00,56.00 L 41.00,56.00 L 41.00,54.00 L 37.00,52.00 L 33.00,47.00 L 30.00,47.00 L 29.00,46.00 L 29.00,39.00 L 30.00,38.00 L 30.00,36.00 L 32.00,35.00 L 35.00,37.00 L 37.00,37.00 L 38.00,38.00 L 42.00,38.00 L 43.00,39.00 L 45.00,39.00 L 49.00,41.00 L 55.00,41.00 L 57.00,40.00 L 61.00,42.00 L 65.00,42.00 L 66.00,43.00 L 68.00,43.00 L 70.00,44.00 L 73.00,48.00 L 73.00,63.00 L 72.00,64.00 L 72.00,68.00 L 77.00,68.00 L 78.00,67.00 L 80.00,67.00 L 83.00,64.00 L 83.00,62.00 L 84.00,61.00 L 84.00,51.00 L 83.00,50.00 L 83.00,47.00 L 82.00,46.00 L 82.00,44.00 L 80.00,40.00 L 80.00,37.00 L 78.00,33.00 L 78.00,30.00 L 77.00,29.00 L 76.00,24.00 L 74.00,22.00 L 72.00,18.00 L 70.00,16.00 L 69.00,16.00 L 65.00,13.00 L 63.00,13.00 L 62.00,12.00 L 58.00,12.00 L 57.00,11.00 L 45.00,11.00 L 44.00,12.00 L 39.00,13.00 L 37.00,15.00" />
            <path d="M 70.00,50.00 L 68.00,50.00 L 67.00,51.00 L 67.00,52.00 L 66.00,53.00 L 64.00,53.00 L 63.00,54.00 L 62.00,54.00 L 61.00,55.00 L 57.00,55.00 L 56.00,56.00 L 55.00,56.00 L 55.00,57.00 L 56.00,58.00 L 56.00,60.00 L 57.00,61.00 L 58.00,61.00 L 57.00,61.00 L 56.00,60.00 L 56.00,59.00 L 57.00,58.00 L 57.00,56.00 L 58.00,55.00 L 59.00,55.00 L 60.00,56.00 L 60.00,57.00 L 62.00,59.00 L 65.00,59.00 L 67.00,57.00 L 67.00,55.00 L 69.00,53.00 L 70.00,53.00 L 69.00,53.00 L 68.00,52.00 L 68.00,51.00 L 69.00,50.00" />
            <path d="M 50.00,15.00 L 46.00,15.00 L 45.00,16.00 L 44.00,16.00 L 41.00,19.00 L 41.00,21.00 L 43.00,21.00 L 44.00,22.00 L 45.00,22.00 L 46.00,23.00 L 46.00,25.00 L 47.00,25.00 L 48.00,26.00 L 50.00,24.00 L 50.00,23.00 L 51.00,22.00 L 51.00,16.00" />
            <path d="M 38.00,69.00 L 38.00,71.00 L 41.00,71.00 L 42.00,72.00 L 47.00,72.00 L 48.00,73.00 L 53.00,73.00 L 53.00,72.00 L 54.00,71.00 L 53.00,71.00 L 52.00,70.00 L 43.00,70.00 L 42.00,69.00" />
            <path d="M 42.00,62.00 L 42.00,64.00 L 44.00,64.00 L 44.00,63.00 L 45.00,62.00 L 46.00,62.00 L 47.00,63.00 L 47.00,65.00 L 50.00,65.00 L 50.00,63.00 L 47.00,63.00 L 46.00,62.00" />
            <path d="M 50.00,19.00 L 51.00,20.00 L 51.00,21.00 L 50.00,22.00 L 50.00,23.00 L 48.00,25.00 L 47.00,25.00 L 46.00,24.00 L 46.00,23.00 L 47.00,22.00 L 47.00,21.00 L 49.00,19.00" />
            <path d="M 66.00,53.00 L 67.00,54.00 L 67.00,56.00 L 64.00,59.00 L 63.00,59.00 L 61.00,57.00 L 61.00,55.00 L 62.00,54.00 L 64.00,54.00 L 65.00,53.00" />
            <path d="M 42.00,19.00 L 43.00,18.00 L 44.00,18.00 L 45.00,19.00 L 46.00,19.00 L 47.00,20.00 L 47.00,21.00 L 46.00,22.00 L 44.00,22.00 L 42.00,20.00" />
            <path d="M 44.00,17.00 L 45.00,16.00 L 46.00,16.00 L 47.00,15.00 L 49.00,15.00 L 51.00,17.00 L 51.00,18.00 L 50.00,19.00 L 45.00,19.00 L 44.00,18.00" />
            <path d="M 37.00,79.00 L 38.00,78.00 L 41.00,78.00 L 42.00,79.00 L 42.00,81.00 L 41.00,82.00 L 39.00,82.00 L 37.00,80.00" />
            <path d="M 47.00,71.00 L 48.00,70.00 L 52.00,70.00 L 53.00,71.00 L 53.00,72.00 L 52.00,73.00 L 48.00,73.00 L 47.00,72.00" />
            <path d="M 34.00,53.00 L 35.00,52.00 L 37.00,52.00 L 39.00,54.00 L 39.00,55.00 L 38.00,56.00 L 36.00,56.00 L 34.00,54.00" />
  </g>
</svg>
