<svg xmlns="http://www.w3.org/2000/svg" viewBox="0 0 100 96" width="100" height="96" fill="none" aria-hidden="true">
  <g stroke="#4a3162" stroke-width="0.9" stroke-linecap="round" stroke-linejoin="round" vector-effect="non-scaling-stroke">
            <path vector-effect="non-scaling-stroke" d="M 59.00,25.00 L 58.00,28.00 L 56.00,30.00 L 56.00,34.00 L 55.00,35.00 L 54.00,35.00 L 53.00,34.00 L 51.00,34.00 L 50.00,33.00 L 51.00,34.00 L 51.00,35.00 L 52.00,35.00 L 54.00,38.00 L 54.00,40.00 L 53.00,41.00 L 52.00,41.00 L 52.00,42.00 L 51.00,43.00 L 50.00,43.00 L 48.00,41.00 L 48.00,34.00 L 46.00,34.00 L 46.00,36.00 L 45.00,37.00 L 45.00,38.00 L 41.00,41.00 L 41.00,42.00 L 43.00,44.00 L 43.00,46.00 L 44.00,47.00 L 44.00,48.00 L 48.00,52.00 L 49.00,52.00 L 50.00,53.00 L 50.00,54.00 L 49.00,55.00 L 48.00,55.00 L 47.00,54.00 L 43.00,54.00 L 41.00,52.00 L 40.00,52.00 L 37.00,50.00 L 33.00,50.00 L 34.00,50.00 L 35.00,51.00 L 38.00,51.00 L 43.00,54.00 L 46.00,54.00 L 48.00,56.00 L 49.00,56.00 L 51.00,58.00 L 51.00,59.00 L 49.00,61.00 L 48.00,61.00 L 45.00,63.00 L 42.00,63.00 L 39.00,61.00 L 36.00,61.00 L 35.00,60.00 L 35.00,58.00 L 34.00,59.00 L 34.00,60.00 L 35.00,61.00 L 39.00,61.00 L 41.00,63.00 L 45.00,63.00 L 48.00,61.00 L 51.00,61.00 L 52.00,60.00 L 52.00,53.00 L 51.00,52.00 L 49.00,52.00 L 43.00,46.00 L 43.00,44.00 L 44.00,43.00 L 46.00,43.00 L 43.00,43.00 L 42.00,42.00 L 42.00,41.00 L 43.00,40.00 L 45.00,40.00 L 45.00,37.00 L 46.00,36.00 L 47.00,36.00 L 48.00,37.00 L 48.00,41.00 L 49.00,42.00 L 49.00,43.00 L 50.00,43.00 L 51.00,44.00 L 51.00,48.00 L 52.00,49.00 L 52.00,50.00 L 54.00,50.00 L 57.00,53.00 L 58.00,52.00 L 61.00,51.00 L 60.00,48.00 L 60.00,50.00 L 58.00,52.00 L 56.00,52.00 L 55.00,51.00 L 55.00,50.00 L 56.00,49.00 L 57.00,49.00 L 57.00,48.00 L 58.00,47.00 L 58.00,46.00 L 56.00,44.00 L 56.00,43.00 L 57.00,42.00 L 57.00,40.00 L 56.00,39.00 L 56.00,31.00 L 59.00,28.00" />
            <path vector-effect="non-scaling-stroke" d="M 69.00,18.00 L 72.00,20.00 L 74.00,23.00 L 67.00,32.00 L 68.00,34.00 L 76.00,34.00 L 82.00,36.00 L 87.00,41.00 L 87.00,45.00 L 82.00,48.00 L 73.00,49.00 L 66.00,53.00 L 64.00,56.00 L 62.00,55.00 L 62.00,53.00 L 58.00,55.00 L 58.00,56.00 L 55.00,58.00 L 55.00,63.00 L 56.00,64.00 L 55.00,66.00 L 53.00,67.00 L 49.00,66.00 L 45.00,68.00 L 39.00,74.00 L 35.00,80.00 L 30.00,79.00 L 28.00,76.00 L 27.00,68.00 L 28.00,67.00 L 28.00,64.00 L 31.00,55.00 L 26.00,53.00 L 15.00,53.00 L 14.00,51.00 L 17.00,49.00 L 14.00,47.00 L 14.00,45.00 L 20.00,39.00 L 23.00,38.00 L 27.00,38.00 L 28.00,39.00 L 28.00,43.00 L 26.00,46.00 L 20.00,46.00 L 19.00,44.00 L 21.00,47.00 L 20.00,50.00 L 27.00,50.00 L 28.00,49.00 L 27.00,48.00 L 27.00,45.00 L 29.00,42.00 L 28.00,39.00 L 31.00,38.00 L 31.00,34.00 L 28.00,25.00 L 28.00,21.00 L 36.00,16.00 L 40.00,16.00 L 44.00,18.00 L 48.00,23.00 L 46.00,24.00 L 42.00,22.00 L 46.00,24.00 L 52.00,30.00 L 53.00,30.00 L 50.00,28.00 L 49.00,26.00 L 50.00,25.00 L 53.00,26.00 L 55.00,25.00 L 59.00,20.00 L 61.00,20.00 L 64.00,25.00 L 64.00,28.00 L 62.00,31.00 L 61.00,37.00 L 59.00,39.00 L 60.00,40.00 L 62.00,34.00 L 62.00,31.00 L 67.00,26.00 L 62.00,22.00 L 61.00,19.00 L 62.00,18.00" />
            <path vector-effect="non-scaling-stroke" d="M 31.00,18.00 L 29.00,20.00 L 28.00,20.00 L 28.00,26.00 L 30.00,30.00 L 31.00,37.00 L 30.00,38.00 L 23.00,38.00 L 22.00,39.00 L 20.00,39.00 L 18.00,40.00 L 14.00,44.00 L 14.00,53.00 L 26.00,53.00 L 27.00,54.00 L 29.00,54.00 L 31.00,56.00 L 30.00,58.00 L 30.00,60.00 L 29.00,61.00 L 29.00,63.00 L 28.00,64.00 L 28.00,67.00 L 27.00,68.00 L 27.00,71.00 L 28.00,72.00 L 28.00,76.00 L 29.00,78.00 L 31.00,80.00 L 36.00,80.00 L 39.00,76.00 L 39.00,75.00 L 46.00,68.00 L 47.00,68.00 L 49.00,66.00 L 50.00,66.00 L 60.00,76.00 L 62.00,76.00 L 63.00,77.00 L 68.00,77.00 L 71.00,74.00 L 71.00,68.00 L 68.00,62.00 L 68.00,60.00 L 65.00,56.00 L 65.00,55.00 L 67.00,53.00 L 68.00,53.00 L 70.00,51.00 L 74.00,49.00 L 78.00,49.00 L 79.00,48.00 L 82.00,48.00 L 83.00,47.00 L 85.00,47.00 L 87.00,46.00 L 87.00,40.00 L 84.00,37.00 L 80.00,35.00 L 78.00,35.00 L 77.00,34.00 L 70.00,34.00 L 68.00,32.00 L 70.00,28.00 L 74.00,24.00 L 75.00,24.00 L 75.00,22.00 L 70.00,18.00 L 61.00,18.00 L 59.00,20.00 L 58.00,20.00 L 55.00,23.00 L 54.00,25.00 L 52.00,25.00 L 45.00,18.00 L 41.00,16.00 L 35.00,16.00 L 33.00,18.00" />
            <path vector-effect="non-scaling-stroke" d="M 65.00,58.00 L 66.00,58.00 L 67.00,59.00 L 67.00,60.00 L 68.00,61.00 L 68.00,62.00 L 69.00,63.00 L 69.00,64.00 L 70.00,65.00 L 70.00,67.00 L 71.00,68.00 L 71.00,73.00 L 69.00,75.00 L 68.00,75.00 L 67.00,74.00 L 67.00,73.00 L 66.00,72.00 L 66.00,71.00 L 66.00,72.00 L 67.00,73.00 L 67.00,74.00 L 68.00,75.00 L 68.00,76.00 L 67.00,77.00 L 63.00,77.00 L 62.00,76.00 L 61.00,76.00 L 53.00,68.00 L 53.00,67.00 L 54.00,66.00 L 55.00,66.00 L 56.00,65.00 L 57.00,65.00 L 60.00,68.00 L 63.00,68.00 L 63.00,67.00 L 64.00,66.00 L 63.00,65.00 L 63.00,64.00 L 62.00,63.00 L 62.00,61.00" />
            <path vector-effect="non-scaling-stroke" d="M 38.00,24.00 L 40.00,26.00 L 40.00,27.00 L 42.00,29.00 L 42.00,30.00 L 41.00,31.00 L 40.00,31.00 L 37.00,34.00 L 37.00,38.00 L 39.00,40.00 L 37.00,38.00 L 37.00,34.00 L 38.00,33.00 L 39.00,33.00 L 42.00,30.00 L 45.00,30.00 L 46.00,31.00 L 47.00,31.00 L 44.00,28.00 L 42.00,28.00" />
            <path vector-effect="non-scaling-stroke" d="M 33.00,39.00 L 34.00,40.00 L 34.00,42.00 L 32.00,44.00 L 33.00,43.00 L 34.00,43.00 L 35.00,44.00 L 35.00,45.00 L 36.00,46.00 L 37.00,46.00 L 38.00,47.00 L 40.00,47.00 L 39.00,47.00 L 38.00,46.00 L 37.00,46.00 L 35.00,44.00 L 35.00,43.00 L 34.00,42.00 L 34.00,40.00" />
            <path vector-effect="non-scaling-stroke" d="M 65.00,57.00 L 65.00,58.00 L 64.00,59.00 L 63.00,59.00 L 61.00,61.00 L 59.00,61.00 L 57.00,63.00 L 56.00,63.00 L 55.00,62.00 L 55.00,59.00 L 57.00,57.00 L 61.00,57.00 L 62.00,56.00 L 64.00,56.00" />
            <path vector-effect="non-scaling-stroke" d="M 72.00,42.00 L 69.00,42.00 L 67.00,44.00 L 66.00,44.00 L 65.00,45.00 L 60.00,45.00 L 61.00,45.00 L 62.00,46.00 L 63.00,45.00 L 65.00,45.00 L 66.00,44.00 L 67.00,44.00 L 69.00,42.00" />
            <path vector-effect="non-scaling-stroke" d="M 60.00,61.00 L 61.00,61.00 L 62.00,62.00 L 62.00,63.00 L 63.00,64.00 L 63.00,66.00 L 62.00,67.00 L 59.00,67.00 L 57.00,65.00 L 57.00,64.00" />
            <path vector-effect="non-scaling-stroke" d="M 34.00,63.00 L 34.00,64.00 L 37.00,67.00 L 37.00,68.00 L 36.00,69.00 L 37.00,70.00 L 39.00,70.00 L 37.00,68.00 L 37.00,66.00" />
            <path vector-effect="non-scaling-stroke" d="M 39.00,19.00 L 37.00,19.00 L 32.00,24.00 L 31.00,24.00 L 32.00,24.00 L 33.00,23.00 L 34.00,23.00 L 38.00,19.00" />
            <path vector-effect="non-scaling-stroke" d="M 34.00,54.00 L 36.00,54.00 L 39.00,57.00 L 39.00,56.00 L 37.00,54.00" />
            <path vector-effect="non-scaling-stroke" d="M 75.00,41.00 L 81.00,41.00 L 82.00,42.00 L 83.00,42.00 L 82.00,41.00" />
  </g>
</svg>
