<svg xmlns="http://www.w3.org/2000/svg" viewBox="0 0 112 168" width="112" height="168" fill="none" aria-hidden="true">
  <g stroke="#4a3162" stroke-width="0.58" stroke-linecap="round" stroke-linejoin="round">
            <path d="M 42.00,21.00 L 43.00,20.00 L 45.00,20.00 L 52.00,26.00 L 52.00,27.00 L 55.00,30.00 L 55.00,31.00 L 57.00,30.00 L 58.00,27.00 L 61.00,24.00 L 66.00,24.00 L 68.00,26.00 L 68.00,30.00 L 69.00,31.00 L 69.00,33.00 L 68.00,34.00 L 71.00,38.00 L 71.00,44.00 L 74.00,43.00 L 75.00,45.00 L 79.00,45.00 L 80.00,44.00 L 86.00,44.00 L 87.00,45.00 L 90.00,45.00 L 92.00,43.00 L 95.00,43.00 L 97.00,45.00 L 97.00,47.00 L 90.00,54.00 L 87.00,55.00 L 85.00,57.00 L 76.00,57.00 L 76.00,58.00 L 77.00,59.00 L 80.00,59.00 L 84.00,62.00 L 85.00,62.00 L 89.00,66.00 L 90.00,66.00 L 93.00,69.00 L 94.00,69.00 L 96.00,71.00 L 96.00,72.00 L 95.00,73.00 L 92.00,72.00 L 89.00,69.00 L 88.00,69.00 L 86.00,67.00 L 85.00,67.00 L 78.00,62.00 L 74.00,62.00 L 73.00,61.00 L 69.00,61.00 L 68.00,60.00 L 66.00,60.00 L 65.00,61.00 L 63.00,61.00 L 61.00,62.00 L 60.00,60.00 L 63.00,57.00 L 65.00,57.00 L 67.00,56.00 L 67.00,55.00 L 69.00,53.00 L 75.00,53.00 L 80.00,49.00 L 81.00,49.00 L 81.00,48.00 L 80.00,47.00 L 79.00,49.00 L 76.00,49.00 L 74.00,47.00 L 64.00,47.00 L 63.00,48.00 L 61.00,48.00 L 60.00,47.00 L 60.00,45.00 L 64.00,42.00 L 64.00,39.00 L 64.00,41.00 L 62.00,44.00 L 61.00,44.00 L 59.00,42.00 L 59.00,41.00 L 60.00,46.00 L 58.00,47.00 L 56.00,45.00 L 56.00,41.00 L 54.00,39.00 L 54.00,38.00 L 57.00,36.00 L 59.00,37.00 L 61.00,36.00 L 62.00,37.00 L 61.00,40.00 L 62.00,38.00 L 62.00,31.00 L 61.00,31.00 L 62.00,32.00 L 62.00,34.00 L 61.00,35.00 L 58.00,36.00 L 56.00,34.00 L 56.00,33.00 L 56.00,36.00 L 54.00,37.00 L 53.00,35.00 L 52.00,35.00 L 51.00,36.00 L 53.00,36.00 L 54.00,38.00 L 53.00,39.00 L 50.00,39.00 L 47.00,37.00 L 47.00,29.00 L 46.00,28.00 L 46.00,26.00 L 44.00,25.00" />
            <path d="M 40.00,19.00 L 40.00,21.00 L 46.00,27.00 L 47.00,31.00 L 44.00,33.00 L 41.00,33.00 L 36.00,40.00 L 36.00,44.00 L 40.00,46.00 L 37.00,54.00 L 39.00,60.00 L 38.00,61.00 L 36.00,60.00 L 30.00,44.00 L 25.00,36.00 L 22.00,36.00 L 22.00,45.00 L 28.00,60.00 L 35.00,68.00 L 39.00,75.00 L 41.00,83.00 L 41.00,101.00 L 40.00,102.00 L 40.00,119.00 L 42.00,120.00 L 42.00,131.00 L 41.00,132.00 L 39.00,131.00 L 39.00,121.00 L 38.00,124.00 L 40.00,132.00 L 42.00,167.00 L 42.00,154.00 L 41.00,153.00 L 41.00,145.00 L 42.00,144.00 L 44.00,145.00 L 44.00,149.00 L 46.00,153.00 L 45.00,167.00 L 46.00,153.00 L 44.00,149.00 L 42.00,136.00 L 42.00,107.00 L 43.00,106.00 L 43.00,89.00 L 45.00,81.00 L 47.00,79.00 L 47.00,76.00 L 56.00,68.00 L 60.00,62.00 L 66.00,60.00 L 77.00,62.00 L 95.00,75.00 L 97.00,75.00 L 96.00,70.00 L 81.00,59.00 L 82.00,57.00 L 85.00,57.00 L 91.00,54.00 L 97.00,48.00 L 97.00,44.00 L 95.00,43.00 L 91.00,43.00 L 89.00,45.00 L 86.00,44.00 L 76.00,45.00 L 75.00,44.00 L 76.00,39.00 L 87.00,29.00 L 87.00,26.00 L 85.00,26.00 L 79.00,33.00 L 80.00,35.00 L 77.00,37.00 L 75.00,35.00 L 76.00,31.00 L 73.00,30.00 L 72.00,27.00 L 69.00,27.00 L 67.00,24.00 L 60.00,24.00 L 55.00,29.00 L 46.00,20.00" />
            <path d="M 54.00,39.00 L 56.00,41.00 L 56.00,43.00 L 55.00,44.00 L 53.00,44.00 L 52.00,43.00 L 51.00,43.00 L 52.00,44.00 L 55.00,44.00 L 57.00,46.00 L 57.00,47.00 L 60.00,47.00 L 61.00,48.00 L 61.00,49.00 L 60.00,50.00 L 57.00,50.00 L 56.00,49.00 L 54.00,49.00 L 53.00,48.00 L 53.00,47.00 L 52.00,47.00 L 51.00,46.00 L 49.00,48.00 L 48.00,48.00 L 46.00,50.00 L 45.00,50.00 L 44.00,51.00 L 45.00,50.00 L 46.00,50.00 L 47.00,51.00 L 47.00,52.00 L 46.00,53.00 L 46.00,54.00 L 45.00,55.00 L 42.00,55.00 L 42.00,56.00 L 41.00,57.00 L 42.00,58.00 L 42.00,59.00 L 42.00,56.00 L 43.00,55.00 L 45.00,55.00 L 46.00,56.00 L 46.00,61.00 L 45.00,62.00 L 45.00,68.00 L 44.00,69.00 L 43.00,69.00 L 41.00,67.00 L 41.00,65.00 L 40.00,64.00 L 40.00,61.00 L 39.00,60.00 L 39.00,58.00 L 38.00,57.00 L 38.00,50.00 L 46.00,42.00 L 47.00,42.00 L 48.00,41.00 L 49.00,41.00 L 49.00,40.00 L 50.00,39.00" />
            <path d="M 23.00,36.00 L 24.00,36.00 L 26.00,38.00 L 26.00,39.00 L 28.00,41.00 L 28.00,42.00 L 29.00,43.00 L 29.00,44.00 L 30.00,45.00 L 30.00,46.00 L 31.00,47.00 L 31.00,48.00 L 32.00,49.00 L 32.00,50.00 L 33.00,51.00 L 33.00,53.00 L 34.00,54.00 L 34.00,55.00 L 35.00,56.00 L 35.00,57.00 L 36.00,58.00 L 36.00,60.00 L 37.00,61.00 L 37.00,64.00 L 38.00,65.00 L 38.00,67.00 L 39.00,68.00 L 39.00,70.00 L 40.00,71.00 L 40.00,72.00 L 41.00,73.00 L 41.00,74.00 L 40.00,75.00 L 39.00,75.00 L 38.00,74.00 L 38.00,73.00 L 37.00,72.00 L 37.00,71.00 L 36.00,70.00 L 36.00,69.00 L 35.00,68.00 L 35.00,67.00 L 30.00,62.00 L 30.00,61.00 L 28.00,59.00 L 28.00,58.00 L 27.00,57.00 L 27.00,56.00 L 26.00,55.00 L 26.00,54.00 L 25.00,53.00 L 25.00,52.00 L 24.00,51.00 L 24.00,50.00 L 23.00,49.00 L 23.00,46.00 L 22.00,45.00 L 22.00,37.00" />
            <path d="M 53.00,60.00 L 54.00,61.00 L 54.00,64.00 L 50.00,68.00 L 50.00,69.00 L 53.00,66.00 L 53.00,65.00 L 54.00,64.00 L 55.00,64.00 L 56.00,65.00 L 56.00,67.00 L 51.00,72.00 L 50.00,72.00 L 48.00,74.00 L 47.00,74.00 L 46.00,73.00 L 46.00,74.00 L 47.00,75.00 L 47.00,78.00 L 46.00,79.00 L 46.00,80.00 L 45.00,81.00 L 45.00,83.00 L 44.00,84.00 L 44.00,88.00 L 43.00,89.00 L 42.00,89.00 L 41.00,88.00 L 41.00,81.00 L 40.00,80.00 L 40.00,78.00 L 39.00,77.00 L 39.00,76.00 L 40.00,75.00 L 42.00,75.00 L 43.00,76.00 L 43.00,80.00 L 43.00,70.00 L 44.00,69.00 L 45.00,69.00 L 46.00,70.00 L 46.00,68.00 L 47.00,67.00 L 47.00,66.00 L 48.00,65.00 L 48.00,64.00 L 49.00,63.00 L 49.00,61.00 L 50.00,60.00" />
            <path d="M 57.00,51.00 L 58.00,50.00 L 60.00,50.00 L 61.00,51.00 L 64.00,51.00 L 65.00,52.00 L 67.00,52.00 L 68.00,53.00 L 68.00,54.00 L 66.00,56.00 L 65.00,56.00 L 64.00,57.00 L 63.00,57.00 L 62.00,56.00 L 62.00,55.00 L 63.00,54.00 L 62.00,54.00 L 61.00,55.00 L 61.00,56.00 L 60.00,57.00 L 59.00,57.00 L 57.00,55.00" />
            <path d="M 61.00,49.00 L 62.00,48.00 L 63.00,48.00 L 64.00,47.00 L 74.00,47.00 L 75.00,48.00 L 75.00,49.00 L 77.00,49.00 L 78.00,50.00 L 78.00,51.00 L 77.00,52.00 L 76.00,52.00 L 75.00,53.00 L 69.00,53.00 L 68.00,52.00 L 66.00,52.00 L 65.00,51.00 L 62.00,51.00 L 61.00,50.00" />
            <path d="M 46.00,32.00 L 47.00,33.00 L 47.00,37.00 L 46.00,38.00 L 45.00,38.00 L 43.00,40.00 L 42.00,40.00 L 40.00,42.00 L 40.00,43.00 L 39.00,44.00 L 37.00,44.00 L 36.00,43.00 L 36.00,40.00 L 38.00,38.00 L 38.00,37.00 L 42.00,33.00 L 44.00,33.00 L 45.00,32.00" />
            <path d="M 50.00,51.00 L 51.00,52.00 L 51.00,54.00 L 50.00,55.00 L 50.00,60.00 L 49.00,61.00 L 49.00,62.00 L 48.00,63.00 L 48.00,64.00 L 47.00,65.00 L 46.00,65.00 L 45.00,64.00 L 45.00,62.00 L 46.00,61.00 L 46.00,54.00 L 49.00,51.00" />
            <path d="M 55.00,49.00 L 57.00,51.00 L 57.00,55.00 L 58.00,56.00 L 58.00,57.00 L 57.00,58.00 L 55.00,58.00 L 55.00,59.00 L 54.00,60.00 L 51.00,60.00 L 50.00,59.00 L 50.00,55.00 L 51.00,54.00 L 51.00,51.00 L 53.00,49.00" />
            <path d="M 49.00,39.00 L 49.00,40.00 L 48.00,41.00 L 47.00,41.00 L 46.00,42.00 L 45.00,42.00 L 42.00,45.00 L 41.00,45.00 L 40.00,44.00 L 40.00,43.00 L 43.00,40.00 L 44.00,40.00 L 46.00,38.00 L 48.00,38.00" />
            <path d="M 38.00,62.00 L 39.00,62.00 L 40.00,63.00 L 40.00,64.00 L 41.00,65.00 L 41.00,67.00 L 40.00,68.00 L 39.00,68.00 L 38.00,67.00 L 38.00,65.00 L 37.00,64.00 L 37.00,63.00" />
            <path d="M 47.00,50.00 L 47.00,49.00 L 48.00,48.00 L 49.00,48.00 L 50.00,47.00 L 52.00,47.00 L 53.00,48.00 L 53.00,49.00 L 52.00,50.00 L 50.00,50.00 L 49.00,51.00 L 48.00,51.00" />
            <path d="M 70.00,32.00 L 71.00,32.00 L 72.00,33.00 L 72.00,35.00 L 73.00,36.00 L 73.00,37.00 L 72.00,38.00 L 71.00,38.00 L 70.00,37.00 L 70.00,36.00 L 69.00,35.00 L 69.00,33.00" />
            <path d="M 59.00,58.00 L 60.00,59.00 L 60.00,62.00 L 59.00,63.00 L 57.00,63.00 L 56.00,64.00 L 55.00,64.00 L 54.00,63.00 L 54.00,60.00 L 56.00,58.00" />
            <path d="M 41.00,136.00 L 42.00,136.00 L 43.00,137.00 L 43.00,142.00 L 42.00,143.00 L 41.00,143.00 L 40.00,142.00 L 40.00,137.00" />
            <path d="M 41.00,101.00 L 42.00,101.00 L 43.00,102.00 L 43.00,106.00 L 42.00,107.00 L 41.00,107.00 L 40.00,106.00 L 40.00,102.00" />
            <path d="M 39.00,69.00 L 40.00,68.00 L 41.00,68.00 L 43.00,70.00 L 43.00,71.00 L 42.00,72.00 L 41.00,72.00 L 39.00,70.00" />
            <path d="M 74.00,36.00 L 75.00,36.00 L 76.00,37.00 L 76.00,41.00 L 75.00,42.00 L 74.00,42.00 L 73.00,41.00 L 73.00,37.00" />
            <path d="M 68.00,29.00 L 69.00,28.00 L 71.00,28.00 L 72.00,29.00 L 72.00,30.00 L 71.00,31.00 L 69.00,31.00 L 68.00,30.00" />
  </g>
</svg>
