<svg xmlns="http://www.w3.org/2000/svg" viewBox="0 0 170 208" width="170" height="208" fill="none" aria-hidden="true">
  <g stroke="#1a2f28" stroke-width="0.34" stroke-linecap="round" stroke-linejoin="round">
            <path d="M 68.00,28.00 L 67.00,29.00 L 66.00,29.00 L 64.00,31.00 L 63.00,31.00 L 60.00,34.00 L 59.00,37.00 L 57.00,39.00 L 57.00,40.00 L 55.00,43.00 L 55.00,46.00 L 54.00,47.00 L 54.00,48.00 L 55.00,49.00 L 55.00,52.00 L 56.00,53.00 L 56.00,54.00 L 58.00,56.00 L 58.00,57.00 L 59.00,57.00 L 60.00,58.00 L 56.00,54.00 L 56.00,53.00 L 55.00,52.00 L 55.00,43.00 L 56.00,42.00 L 56.00,41.00 L 58.00,39.00 L 59.00,39.00 L 61.00,41.00 L 65.00,41.00 L 66.00,42.00 L 67.00,42.00 L 70.00,45.00 L 71.00,45.00 L 77.00,51.00 L 77.00,52.00 L 78.00,53.00 L 78.00,61.00 L 76.00,63.00 L 76.00,64.00 L 75.00,65.00 L 78.00,62.00 L 78.00,59.00 L 79.00,58.00 L 79.00,55.00 L 77.00,52.00 L 77.00,50.00 L 68.00,42.00 L 67.00,42.00 L 66.00,41.00 L 61.00,41.00 L 59.00,39.00 L 59.00,37.00 L 60.00,36.00 L 60.00,35.00 L 64.00,31.00 L 65.00,31.00 L 67.00,29.00 L 68.00,29.00 L 69.00,28.00 L 76.00,28.00 L 77.00,29.00 L 78.00,29.00 L 79.00,30.00 L 79.00,35.00 L 81.00,37.00 L 82.00,36.00 L 83.00,36.00 L 84.00,37.00 L 85.00,36.00 L 86.00,36.00 L 87.00,37.00 L 87.00,40.00 L 86.00,41.00 L 85.00,41.00 L 84.00,42.00 L 79.00,42.00 L 78.00,43.00 L 78.00,44.00 L 77.00,45.00 L 80.00,42.00 L 82.00,42.00 L 83.00,43.00 L 83.00,44.00 L 80.00,47.00 L 79.00,47.00 L 80.00,48.00 L 88.00,39.00 L 91.00,38.00 L 91.00,35.00 L 90.00,34.00 L 90.00,33.00 L 89.00,34.00 L 87.00,34.00 L 85.00,36.00 L 81.00,36.00 L 79.00,34.00 L 79.00,29.00 L 78.00,29.00 L 77.00,28.00" />
            <path d="M 118.00,34.00 L 113.00,39.00 L 111.00,39.00 L 110.00,38.00 L 110.00,37.00 L 108.00,35.00 L 107.00,35.00 L 106.00,36.00 L 103.00,36.00 L 102.00,35.00 L 101.00,35.00 L 100.00,36.00 L 98.00,36.00 L 97.00,37.00 L 97.00,38.00 L 96.00,39.00 L 93.00,39.00 L 94.00,40.00 L 94.00,41.00 L 93.00,42.00 L 91.00,42.00 L 90.00,41.00 L 90.00,42.00 L 91.00,42.00 L 92.00,43.00 L 92.00,47.00 L 93.00,48.00 L 93.00,51.00 L 92.00,52.00 L 92.00,54.00 L 93.00,55.00 L 93.00,56.00 L 92.00,57.00 L 93.00,58.00 L 93.00,62.00 L 94.00,63.00 L 94.00,64.00 L 94.00,63.00 L 93.00,62.00 L 93.00,55.00 L 92.00,54.00 L 92.00,52.00 L 93.00,51.00 L 93.00,48.00 L 92.00,47.00 L 92.00,43.00 L 99.00,36.00 L 100.00,36.00 L 101.00,35.00 L 102.00,35.00 L 104.00,37.00 L 104.00,42.00 L 105.00,43.00 L 105.00,49.00 L 106.00,50.00 L 106.00,53.00 L 107.00,54.00 L 107.00,56.00 L 106.00,57.00 L 106.00,60.00 L 105.00,61.00 L 105.00,63.00 L 106.00,62.00 L 106.00,57.00 L 108.00,55.00 L 106.00,53.00 L 106.00,52.00 L 107.00,51.00 L 105.00,49.00 L 105.00,42.00 L 104.00,41.00 L 104.00,37.00 L 105.00,36.00 L 106.00,36.00 L 107.00,35.00 L 108.00,35.00 L 110.00,37.00 L 110.00,39.00 L 112.00,39.00 L 113.00,40.00 L 113.00,41.00 L 110.00,44.00 L 110.00,45.00 L 109.00,46.00 L 109.00,47.00 L 109.00,46.00 L 110.00,45.00 L 110.00,44.00 L 112.00,42.00 L 113.00,42.00 L 113.00,41.00 L 114.00,40.00 L 114.00,39.00 L 118.00,35.00" />
            <path d="M 104.00,24.00 L 90.00,25.00 L 86.00,29.00 L 86.00,32.00 L 87.00,29.00 L 93.00,24.00 L 104.00,24.00 L 108.00,28.00 L 112.00,29.00 L 116.00,27.00 L 123.00,36.00 L 124.00,44.00 L 119.00,56.00 L 107.00,68.00 L 103.00,68.00 L 102.00,66.00 L 103.00,68.00 L 108.00,69.00 L 107.00,73.00 L 115.00,81.00 L 114.00,91.00 L 111.00,87.00 L 112.00,84.00 L 110.00,85.00 L 103.00,76.00 L 97.00,75.00 L 94.00,72.00 L 97.00,67.00 L 100.00,68.00 L 99.00,66.00 L 97.00,66.00 L 93.00,70.00 L 93.00,73.00 L 91.00,71.00 L 90.00,74.00 L 87.00,74.00 L 77.00,80.00 L 70.00,80.00 L 57.00,75.00 L 54.00,72.00 L 54.00,66.00 L 47.00,55.00 L 47.00,44.00 L 49.00,41.00 L 52.00,40.00 L 49.00,41.00 L 47.00,44.00 L 47.00,55.00 L 53.00,65.00 L 52.00,71.00 L 55.00,74.00 L 70.00,80.00 L 77.00,80.00 L 88.00,76.00 L 90.00,79.00 L 90.00,103.00 L 86.00,141.00 L 86.00,167.00 L 90.00,207.00 L 92.00,207.00 L 88.00,164.00 L 88.00,144.00 L 92.00,107.00 L 93.00,75.00 L 99.00,75.00 L 100.00,78.00 L 102.00,76.00 L 107.00,81.00 L 112.00,89.00 L 113.00,94.00 L 115.00,95.00 L 115.00,81.00 L 113.00,77.00 L 108.00,73.00 L 108.00,67.00 L 119.00,57.00 L 124.00,44.00 L 123.00,35.00 L 116.00,26.00 L 114.00,28.00 L 109.00,28.00" />
            <path d="M 73.00,56.00 L 72.00,57.00 L 72.00,59.00 L 70.00,61.00 L 68.00,61.00 L 67.00,60.00 L 67.00,56.00 L 66.00,56.00 L 67.00,57.00 L 67.00,60.00 L 66.00,61.00 L 65.00,61.00 L 64.00,60.00 L 64.00,57.00 L 64.00,59.00 L 63.00,60.00 L 62.00,60.00 L 62.00,62.00 L 58.00,66.00 L 58.00,67.00 L 58.00,66.00 L 59.00,65.00 L 60.00,65.00 L 64.00,61.00 L 70.00,61.00 L 71.00,60.00 L 72.00,60.00 L 72.00,57.00" />
            <path d="M 82.00,50.00 L 82.00,51.00 L 83.00,52.00 L 83.00,53.00 L 84.00,54.00 L 84.00,55.00 L 85.00,56.00 L 85.00,58.00 L 84.00,59.00 L 85.00,60.00 L 85.00,58.00 L 86.00,57.00 L 85.00,56.00 L 85.00,55.00 L 84.00,54.00 L 84.00,53.00 L 83.00,52.00 L 83.00,51.00" />
            <path d="M 116.00,45.00 L 113.00,45.00 L 114.00,45.00 L 115.00,46.00 L 115.00,51.00 L 113.00,53.00 L 113.00,57.00 L 112.00,58.00 L 113.00,57.00 L 114.00,57.00 L 113.00,56.00 L 113.00,53.00 L 115.00,51.00 L 115.00,48.00 L 116.00,47.00" />
            <path d="M 72.00,35.00 L 74.00,37.00 L 74.00,39.00 L 73.00,40.00 L 71.00,40.00 L 72.00,40.00 L 73.00,41.00 L 74.00,40.00 L 75.00,40.00 L 76.00,39.00 L 75.00,39.00 L 74.00,38.00 L 74.00,36.00 L 73.00,35.00" />
            <path d="M 59.00,45.00 L 58.00,46.00 L 58.00,47.00 L 59.00,48.00 L 59.00,50.00 L 60.00,51.00 L 60.00,54.00 L 62.00,54.00 L 62.00,53.00 L 60.00,51.00 L 60.00,50.00 L 59.00,49.00" />
            <path d="M 90.00,199.00 L 91.00,199.00 L 92.00,200.00 L 92.00,204.00 L 91.00,205.00 L 90.00,205.00 L 89.00,204.00 L 89.00,200.00" />
            <path d="M 88.00,188.00 L 89.00,187.00 L 90.00,187.00 L 91.00,188.00 L 91.00,190.00 L 90.00,191.00 L 89.00,191.00 L 88.00,190.00" />
            <path d="M 87.00,177.00 L 88.00,176.00 L 89.00,176.00 L 90.00,177.00 L 90.00,178.00 L 89.00,179.00 L 88.00,179.00 L 87.00,178.00" />
            <path d="M 86.00,165.00 L 87.00,164.00 L 88.00,164.00 L 89.00,165.00 L 89.00,167.00 L 88.00,168.00 L 87.00,168.00 L 86.00,167.00" />
            <path d="M 86.00,141.00 L 87.00,140.00 L 88.00,140.00 L 89.00,141.00 L 89.00,143.00 L 88.00,144.00 L 87.00,144.00 L 86.00,143.00" />
            <path d="M 87.00,129.00 L 88.00,128.00 L 89.00,128.00 L 90.00,129.00 L 90.00,130.00 L 89.00,131.00 L 88.00,131.00 L 87.00,130.00" />
            <path d="M 88.00,117.00 L 89.00,116.00 L 90.00,116.00 L 91.00,117.00 L 91.00,119.00 L 90.00,120.00 L 89.00,120.00 L 88.00,119.00" />
            <path d="M 90.00,103.00 L 91.00,103.00 L 92.00,104.00 L 92.00,107.00 L 91.00,108.00 L 90.00,108.00 L 89.00,107.00 L 89.00,104.00" />
            <path d="M 91.00,78.00 L 92.00,78.00 L 93.00,79.00 L 93.00,93.00 L 92.00,94.00 L 91.00,94.00 L 90.00,93.00 L 90.00,79.00" />
            <path d="M 87.00,35.00 L 88.00,34.00 L 89.00,34.00 L 91.00,36.00 L 91.00,37.00 L 89.00,39.00 L 88.00,39.00 L 87.00,38.00" />
            <path d="M 67.00,33.00 L 67.00,36.00 L 68.00,37.00 L 68.00,38.00 L 69.00,39.00 L 68.00,38.00 L 68.00,35.00 L 67.00,34.00" />
  </g>
</svg>
