<svg xmlns="http://www.w3.org/2000/svg" viewBox="0 0 166 168" width="166" height="168" fill="none" aria-hidden="true">
  <g id="ladybug-trace" stroke="#242028" stroke-width="1.32" stroke-linecap="round" stroke-linejoin="round">
            <path d="M 40.00,19.00 L 46.00,20.00 L 54.00,41.00 L 52.00,44.00 L 55.00,43.00 L 63.00,50.00 L 72.00,51.00 L 74.00,53.00 L 72.00,58.00 L 73.00,65.00 L 76.00,69.00 L 89.00,73.00 L 88.00,76.00 L 84.00,77.00 L 76.00,75.00 L 68.00,81.00 L 75.00,76.00 L 86.00,78.00 L 94.00,69.00 L 94.00,61.00 L 91.00,55.00 L 109.00,45.00 L 114.00,46.00 L 115.00,43.00 L 122.00,52.00 L 122.00,58.00 L 123.00,56.00 L 125.00,57.00 L 133.00,81.00 L 140.00,94.00 L 140.00,97.00 L 136.00,98.00 L 132.00,88.00 L 132.00,101.00 L 125.00,117.00 L 122.00,143.00 L 119.00,146.00 L 119.00,150.00 L 127.00,158.00 L 126.00,160.00 L 115.00,153.00 L 113.00,143.00 L 118.00,127.00 L 122.00,123.00 L 122.00,117.00 L 117.00,125.00 L 110.00,123.00 L 109.00,119.00 L 116.00,113.00 L 109.00,112.00 L 103.00,122.00 L 110.00,129.00 L 103.00,121.00 L 110.00,112.00 L 113.00,112.00 L 114.00,114.00 L 109.00,117.00 L 108.00,124.00 L 112.00,123.00 L 115.00,126.00 L 113.00,129.00 L 115.00,128.00 L 116.00,130.00 L 103.00,141.00 L 99.00,140.00 L 101.00,141.00 L 100.00,143.00 L 85.00,147.00 L 85.00,144.00 L 97.00,141.00 L 89.00,144.00 L 76.00,143.00 L 79.00,144.00 L 76.00,146.00 L 66.00,142.00 L 69.00,140.00 L 71.00,141.00 L 58.00,137.00 L 58.00,134.00 L 54.00,133.00 L 58.00,130.00 L 49.00,123.00 L 49.00,117.00 L 54.00,113.00 L 50.00,111.00 L 47.00,113.00 L 46.00,111.00 L 50.00,107.00 L 43.00,115.00 L 46.00,115.00 L 49.00,119.00 L 49.00,129.00 L 54.00,145.00 L 52.00,146.00 L 52.00,153.00 L 46.00,158.00 L 42.00,157.00 L 48.00,149.00 L 45.00,144.00 L 43.00,122.00 L 45.00,121.00 L 47.00,127.00 L 46.00,121.00 L 42.00,120.00 L 37.00,110.00 L 35.00,95.00 L 33.00,95.00 L 31.00,105.00 L 28.00,106.00 L 27.00,104.00 L 27.00,109.00 L 23.00,115.00 L 15.00,116.00 L 12.00,120.00 L 10.00,119.00 L 16.00,112.00 L 21.00,113.00 L 20.00,111.00 L 23.00,108.00 L 34.00,80.00 L 36.00,68.00 L 49.00,47.00 L 43.00,26.00 L 39.00,22.00" />
            <path d="M 31.00,11.00 L 34.00,19.00 L 43.00,26.00 L 49.00,46.00 L 38.00,63.00 L 35.00,77.00 L 23.00,107.00 L 18.00,112.00 L 12.00,114.00 L 10.00,119.00 L 12.00,120.00 L 16.00,116.00 L 24.00,115.00 L 27.00,108.00 L 31.00,105.00 L 32.00,100.00 L 35.00,100.00 L 37.00,111.00 L 43.00,121.00 L 45.00,144.00 L 48.00,148.00 L 47.00,151.00 L 40.00,157.00 L 39.00,163.00 L 49.00,157.00 L 52.00,153.00 L 52.00,147.00 L 54.00,146.00 L 51.00,135.00 L 52.00,133.00 L 72.00,145.00 L 89.00,147.00 L 104.00,141.00 L 115.00,131.00 L 117.00,132.00 L 113.00,143.00 L 115.00,153.00 L 126.00,163.00 L 127.00,157.00 L 119.00,150.00 L 119.00,147.00 L 122.00,143.00 L 125.00,118.00 L 129.00,112.00 L 132.00,98.00 L 134.00,97.00 L 136.00,99.00 L 137.00,107.00 L 144.00,115.00 L 152.00,116.00 L 155.00,120.00 L 157.00,120.00 L 157.00,117.00 L 153.00,112.00 L 145.00,109.00 L 139.00,91.00 L 133.00,81.00 L 128.00,62.00 L 117.00,45.00 L 124.00,25.00 L 131.00,21.00 L 135.00,12.00 L 124.00,20.00 L 119.00,21.00 L 115.00,36.00 L 113.00,37.00 L 110.00,28.00 L 105.00,23.00 L 98.00,20.00 L 102.00,9.00 L 100.00,4.00 L 96.00,5.00 L 97.00,13.00 L 94.00,17.00 L 91.00,15.00 L 89.00,9.00 L 86.00,9.00 L 86.00,15.00 L 81.00,15.00 L 81.00,9.00 L 79.00,8.00 L 73.00,16.00 L 70.00,12.00 L 71.00,5.00 L 68.00,4.00 L 65.00,6.00 L 68.00,20.00 L 58.00,27.00 L 55.00,37.00 L 53.00,38.00 L 47.00,20.00 L 41.00,19.00 L 33.00,11.00" />
            <path d="M 102.00,85.00 L 103.00,85.00 L 104.00,86.00 L 107.00,86.00 L 110.00,89.00 L 111.00,89.00 L 109.00,87.00 L 108.00,87.00 L 107.00,86.00 L 105.00,86.00 L 104.00,85.00 L 102.00,85.00 L 101.00,86.00 L 100.00,86.00 L 100.00,93.00 L 99.00,94.00 L 99.00,96.00 L 98.00,97.00 L 98.00,100.00 L 97.00,101.00 L 95.00,101.00 L 96.00,102.00 L 96.00,103.00 L 97.00,104.00 L 98.00,104.00 L 99.00,105.00 L 102.00,105.00 L 104.00,103.00 L 103.00,104.00 L 102.00,104.00 L 101.00,105.00 L 99.00,105.00 L 97.00,103.00 L 97.00,102.00 L 98.00,101.00 L 103.00,101.00 L 100.00,101.00 L 99.00,100.00 L 99.00,94.00 L 100.00,93.00 L 100.00,91.00 L 101.00,90.00 L 103.00,90.00 L 108.00,95.00 L 108.00,96.00 L 110.00,98.00 L 110.00,102.00 L 108.00,104.00 L 108.00,105.00 L 110.00,103.00 L 111.00,103.00 L 111.00,102.00 L 110.00,101.00 L 110.00,100.00 L 111.00,99.00 L 109.00,97.00 L 109.00,96.00 L 108.00,95.00 L 108.00,94.00 L 104.00,90.00 L 103.00,90.00 L 102.00,89.00 L 101.00,89.00 L 100.00,88.00 L 100.00,87.00" />
            <path d="M 86.00,113.00 L 86.00,114.00 L 85.00,115.00 L 85.00,119.00 L 86.00,120.00 L 86.00,122.00 L 85.00,123.00 L 85.00,124.00 L 83.00,126.00 L 80.00,126.00 L 79.00,125.00 L 79.00,123.00 L 79.00,124.00 L 76.00,127.00 L 77.00,127.00 L 78.00,126.00 L 82.00,126.00 L 83.00,127.00 L 85.00,127.00 L 86.00,128.00 L 86.00,130.00 L 85.00,131.00 L 85.00,139.00 L 86.00,138.00 L 88.00,138.00 L 87.00,138.00 L 85.00,136.00 L 85.00,134.00 L 86.00,133.00 L 85.00,132.00 L 85.00,131.00 L 86.00,130.00 L 86.00,128.00 L 85.00,127.00 L 85.00,123.00 L 87.00,121.00 L 85.00,119.00 L 85.00,115.00 L 86.00,114.00" />
            <path d="M 133.00,14.00 L 134.00,15.00 L 134.00,16.00 L 131.00,19.00 L 131.00,20.00 L 127.00,24.00 L 124.00,24.00 L 124.00,26.00 L 123.00,27.00 L 123.00,29.00 L 122.00,30.00 L 122.00,32.00 L 121.00,33.00 L 121.00,35.00 L 120.00,36.00 L 116.00,36.00 L 115.00,35.00 L 115.00,34.00 L 116.00,33.00 L 116.00,31.00 L 117.00,30.00 L 117.00,28.00 L 118.00,27.00 L 118.00,24.00 L 119.00,23.00 L 119.00,22.00 L 121.00,20.00 L 124.00,20.00 L 125.00,19.00 L 126.00,19.00 L 127.00,18.00 L 128.00,18.00 L 132.00,14.00" />
            <path d="M 67.00,28.00 L 68.00,28.00 L 69.00,29.00 L 69.00,27.00 L 71.00,25.00 L 73.00,25.00 L 74.00,26.00 L 75.00,26.00 L 76.00,27.00 L 77.00,27.00 L 79.00,29.00 L 86.00,29.00 L 87.00,28.00 L 86.00,29.00 L 80.00,29.00 L 79.00,28.00 L 78.00,28.00 L 76.00,26.00 L 74.00,26.00 L 73.00,25.00 L 72.00,25.00 L 71.00,24.00 L 69.00,26.00 L 68.00,26.00 L 68.00,27.00" />
            <path d="M 64.00,89.00 L 66.00,89.00 L 68.00,91.00 L 69.00,91.00 L 70.00,92.00 L 70.00,93.00 L 71.00,92.00 L 72.00,92.00 L 73.00,93.00 L 73.00,94.00 L 71.00,96.00 L 71.00,97.00 L 69.00,99.00 L 69.00,100.00 L 67.00,102.00 L 62.00,102.00 L 61.00,101.00 L 60.00,101.00 L 58.00,99.00 L 58.00,98.00 L 57.00,97.00 L 57.00,95.00 L 62.00,90.00 L 63.00,90.00" />
            <path d="M 68.00,31.00 L 67.00,31.00 L 66.00,32.00 L 62.00,32.00 L 68.00,32.00 L 70.00,34.00 L 70.00,37.00 L 69.00,38.00 L 67.00,38.00 L 66.00,37.00 L 66.00,38.00 L 65.00,39.00 L 64.00,39.00 L 63.00,38.00 L 63.00,39.00 L 65.00,41.00 L 65.00,44.00 L 65.00,40.00 L 67.00,38.00 L 70.00,38.00 L 71.00,37.00 L 70.00,36.00 L 70.00,35.00 L 71.00,34.00" />
            <path d="M 86.00,18.00 L 87.00,19.00 L 87.00,21.00 L 88.00,22.00 L 88.00,24.00 L 89.00,25.00 L 90.00,25.00 L 91.00,26.00 L 92.00,25.00 L 93.00,25.00 L 94.00,24.00 L 93.00,24.00 L 92.00,25.00 L 89.00,25.00 L 88.00,24.00 L 88.00,22.00 L 87.00,21.00 L 87.00,19.00" />
            <path d="M 82.00,18.00 L 81.00,18.00 L 78.00,21.00 L 77.00,21.00 L 76.00,22.00 L 74.00,22.00 L 73.00,21.00 L 74.00,22.00 L 76.00,22.00 L 77.00,21.00 L 79.00,21.00 L 79.00,20.00 L 80.00,19.00 L 81.00,19.00 L 82.00,20.00 L 82.00,22.00" />
            <path d="M 67.00,5.00 L 70.00,5.00 L 71.00,6.00 L 71.00,8.00 L 70.00,9.00 L 70.00,13.00 L 72.00,15.00 L 72.00,18.00 L 71.00,19.00 L 69.00,19.00 L 68.00,18.00 L 68.00,17.00 L 66.00,15.00 L 66.00,12.00 L 65.00,11.00 L 65.00,7.00" />
            <path d="M 115.00,36.00 L 119.00,36.00 L 120.00,37.00 L 120.00,38.00 L 118.00,40.00 L 118.00,42.00 L 117.00,43.00 L 115.00,43.00 L 114.00,42.00 L 114.00,37.00" />
            <path d="M 34.00,17.00 L 35.00,16.00 L 36.00,16.00 L 37.00,17.00 L 38.00,17.00 L 39.00,18.00 L 39.00,20.00 L 38.00,21.00 L 37.00,21.00 L 34.00,18.00" />
            <path d="M 80.00,9.00 L 81.00,10.00 L 81.00,11.00 L 80.00,12.00 L 80.00,14.00 L 79.00,15.00 L 77.00,15.00 L 76.00,14.00 L 76.00,12.00 L 79.00,9.00" />
            <path d="M 39.00,159.00 L 40.00,158.00 L 41.00,158.00 L 42.00,159.00 L 42.00,160.00 L 41.00,161.00 L 40.00,161.00 L 39.00,160.00" />
            <path d="M 75.00,99.00 L 74.00,100.00 L 75.00,101.00 L 75.00,102.00 L 76.00,103.00 L 76.00,109.00 L 76.00,103.00 L 75.00,102.00" />
            <path d="M 89.00,70.00 L 90.00,69.00 L 91.00,69.00 L 92.00,70.00 L 92.00,71.00 L 91.00,72.00 L 90.00,72.00 L 89.00,71.00" />
            <path d="M 98.00,4.00 L 99.00,4.00 L 102.00,7.00 L 102.00,9.00 L 101.00,10.00 L 98.00,10.00 L 96.00,8.00 L 96.00,6.00" />
            <path d="M 51.00,48.00 L 52.00,49.00 L 57.00,49.00 L 55.00,49.00 L 54.00,48.00 L 53.00,49.00 L 52.00,49.00" />
  </g>
</svg>
