<svg xmlns="http://www.w3.org/2000/svg" viewBox="0 0 120 105" width="120" height="105" fill="none" aria-hidden="true">
  <g stroke="#4a3162" stroke-width="0.58" stroke-linecap="round" stroke-linejoin="round">
            <path d="M 53.00,30.00 L 57.00,34.00 L 57.00,36.00 L 58.00,37.00 L 58.00,40.00 L 56.00,42.00 L 55.00,42.00 L 53.00,40.00 L 53.00,38.00 L 54.00,37.00 L 54.00,35.00 L 52.00,33.00 L 51.00,33.00 L 48.00,31.00 L 50.00,33.00 L 51.00,33.00 L 54.00,36.00 L 54.00,37.00 L 52.00,39.00 L 53.00,40.00 L 53.00,43.00 L 51.00,46.00 L 51.00,53.00 L 48.00,56.00 L 46.00,56.00 L 45.00,55.00 L 43.00,55.00 L 42.00,54.00 L 40.00,54.00 L 39.00,53.00 L 36.00,53.00 L 35.00,52.00 L 33.00,52.00 L 32.00,51.00 L 30.00,51.00 L 29.00,50.00 L 26.00,50.00 L 25.00,49.00 L 23.00,49.00 L 24.00,49.00 L 25.00,50.00 L 28.00,50.00 L 29.00,51.00 L 31.00,51.00 L 32.00,52.00 L 35.00,52.00 L 36.00,53.00 L 39.00,53.00 L 40.00,54.00 L 42.00,54.00 L 43.00,55.00 L 45.00,55.00 L 46.00,56.00 L 46.00,57.00 L 48.00,59.00 L 47.00,58.00 L 47.00,57.00 L 48.00,56.00 L 49.00,56.00 L 51.00,54.00 L 51.00,53.00 L 52.00,52.00 L 53.00,52.00 L 54.00,53.00 L 56.00,53.00 L 56.00,52.00 L 57.00,51.00 L 59.00,51.00 L 60.00,52.00 L 60.00,55.00 L 59.00,56.00 L 58.00,56.00 L 57.00,55.00 L 55.00,61.00 L 54.00,62.00 L 53.00,62.00 L 53.00,63.00 L 52.00,64.00 L 51.00,64.00 L 50.00,63.00 L 50.00,61.00 L 49.00,61.00 L 45.00,65.00 L 45.00,67.00 L 44.00,68.00 L 44.00,70.00 L 43.00,71.00 L 43.00,72.00 L 39.00,76.00 L 38.00,76.00 L 37.00,77.00 L 32.00,77.00 L 31.00,76.00 L 28.00,76.00 L 27.00,75.00 L 27.00,73.00 L 22.00,68.00 L 22.00,67.00 L 20.00,65.00 L 20.00,64.00 L 19.00,63.00 L 19.00,61.00 L 18.00,60.00 L 18.00,50.00 L 19.00,49.00 L 19.00,48.00 L 20.00,47.00 L 21.00,44.00 L 30.00,35.00 L 31.00,35.00 L 32.00,34.00 L 35.00,33.00 L 37.00,31.00 L 38.00,31.00 L 39.00,30.00 L 41.00,30.00 L 42.00,29.00 L 44.00,29.00 L 45.00,28.00 L 48.00,28.00 L 49.00,29.00 L 51.00,29.00 L 52.00,30.00" />
            <path d="M 66.00,29.00 L 78.00,29.00 L 79.00,30.00 L 80.00,30.00 L 81.00,31.00 L 84.00,32.00 L 86.00,34.00 L 87.00,34.00 L 96.00,42.00 L 96.00,43.00 L 97.00,44.00 L 97.00,45.00 L 99.00,48.00 L 99.00,60.00 L 98.00,61.00 L 98.00,62.00 L 96.00,64.00 L 95.00,67.00 L 90.00,72.00 L 90.00,74.00 L 89.00,75.00 L 86.00,75.00 L 85.00,76.00 L 79.00,76.00 L 75.00,72.00 L 75.00,71.00 L 74.00,70.00 L 74.00,67.00 L 72.00,65.00 L 72.00,64.00 L 70.00,62.00 L 66.00,62.00 L 65.00,61.00 L 65.00,60.00 L 66.00,59.00 L 67.00,59.00 L 66.00,59.00 L 64.00,57.00 L 64.00,56.00 L 64.00,60.00 L 65.00,61.00 L 65.00,64.00 L 64.00,65.00 L 62.00,65.00 L 61.00,64.00 L 61.00,62.00 L 62.00,61.00 L 61.00,60.00 L 61.00,56.00 L 62.00,55.00 L 62.00,53.00 L 64.00,50.00 L 65.00,50.00 L 66.00,51.00 L 66.00,54.00 L 67.00,54.00 L 70.00,57.00 L 70.00,58.00 L 73.00,61.00 L 74.00,61.00 L 73.00,61.00 L 70.00,58.00 L 70.00,57.00 L 71.00,56.00 L 72.00,56.00 L 72.00,55.00 L 73.00,54.00 L 75.00,54.00 L 76.00,53.00 L 78.00,53.00 L 79.00,52.00 L 81.00,52.00 L 82.00,51.00 L 84.00,51.00 L 85.00,50.00 L 89.00,50.00 L 90.00,49.00 L 92.00,49.00 L 93.00,48.00 L 95.00,48.00 L 93.00,48.00 L 92.00,49.00 L 89.00,49.00 L 88.00,50.00 L 85.00,50.00 L 84.00,51.00 L 81.00,51.00 L 78.00,53.00 L 76.00,53.00 L 75.00,54.00 L 73.00,54.00 L 72.00,55.00 L 69.00,55.00 L 68.00,54.00 L 67.00,54.00 L 66.00,53.00 L 66.00,44.00 L 65.00,43.00 L 65.00,38.00 L 65.00,43.00 L 66.00,44.00 L 66.00,49.00 L 65.00,50.00 L 64.00,50.00 L 63.00,49.00 L 63.00,46.00 L 62.00,45.00 L 62.00,43.00 L 60.00,41.00 L 60.00,36.00 L 61.00,35.00 L 61.00,34.00" />
            <path d="M 21.00,43.00 L 21.00,44.00 L 19.00,47.00 L 19.00,49.00 L 18.00,50.00 L 18.00,60.00 L 19.00,61.00 L 19.00,63.00 L 20.00,64.00 L 20.00,66.00 L 22.00,68.00 L 22.00,69.00 L 26.00,73.00 L 26.00,74.00 L 27.00,75.00 L 27.00,76.00 L 26.00,77.00 L 26.00,79.00 L 27.00,80.00 L 27.00,81.00 L 28.00,82.00 L 30.00,82.00 L 33.00,84.00 L 43.00,84.00 L 44.00,83.00 L 46.00,83.00 L 47.00,82.00 L 48.00,82.00 L 49.00,81.00 L 51.00,81.00 L 52.00,80.00 L 53.00,80.00 L 55.00,82.00 L 64.00,82.00 L 65.00,81.00 L 68.00,81.00 L 71.00,83.00 L 74.00,83.00 L 75.00,84.00 L 83.00,84.00 L 84.00,83.00 L 87.00,83.00 L 90.00,81.00 L 90.00,73.00 L 95.00,68.00 L 95.00,67.00 L 96.00,66.00 L 96.00,65.00 L 98.00,63.00 L 98.00,61.00 L 99.00,60.00 L 99.00,48.00 L 98.00,47.00 L 98.00,45.00 L 97.00,44.00 L 97.00,43.00 L 96.00,42.00 L 96.00,41.00 L 93.00,38.00 L 92.00,38.00 L 88.00,34.00 L 87.00,34.00 L 85.00,32.00 L 84.00,32.00 L 81.00,30.00 L 79.00,30.00 L 78.00,29.00 L 69.00,29.00 L 67.00,27.00 L 67.00,26.00 L 65.00,24.00 L 64.00,24.00 L 62.00,22.00 L 60.00,22.00 L 59.00,21.00 L 55.00,21.00 L 54.00,22.00 L 51.00,22.00 L 44.00,29.00 L 42.00,29.00 L 41.00,30.00 L 39.00,30.00 L 38.00,31.00 L 36.00,31.00 L 34.00,33.00 L 33.00,33.00 L 32.00,34.00 L 31.00,34.00 L 30.00,35.00 L 29.00,35.00" />
            <path d="M 50.00,63.00 L 50.00,65.00 L 49.00,66.00 L 49.00,72.00 L 48.00,73.00 L 46.00,73.00 L 46.00,74.00 L 42.00,78.00 L 41.00,78.00 L 40.00,79.00 L 39.00,79.00 L 38.00,80.00 L 34.00,80.00 L 38.00,80.00 L 39.00,79.00 L 40.00,79.00 L 41.00,78.00 L 42.00,78.00 L 47.00,73.00 L 52.00,73.00 L 53.00,74.00 L 53.00,75.00 L 52.00,76.00 L 53.00,77.00 L 53.00,78.00 L 50.00,81.00 L 49.00,81.00 L 48.00,82.00 L 47.00,82.00 L 46.00,83.00 L 44.00,83.00 L 43.00,84.00 L 33.00,84.00 L 32.00,83.00 L 31.00,83.00 L 30.00,82.00 L 29.00,82.00 L 26.00,79.00 L 26.00,77.00 L 27.00,76.00 L 31.00,76.00 L 32.00,77.00 L 37.00,77.00 L 38.00,76.00 L 40.00,76.00 L 42.00,74.00 L 42.00,73.00 L 43.00,72.00 L 43.00,71.00 L 44.00,70.00 L 44.00,68.00 L 45.00,67.00 L 45.00,66.00 L 47.00,64.00 L 47.00,63.00 L 48.00,62.00 L 49.00,62.00" />
            <path d="M 68.00,64.00 L 69.00,63.00 L 70.00,63.00 L 73.00,66.00 L 73.00,67.00 L 74.00,68.00 L 74.00,70.00 L 75.00,71.00 L 75.00,72.00 L 76.00,73.00 L 76.00,75.00 L 75.00,76.00 L 74.00,76.00 L 73.00,75.00 L 73.00,74.00 L 72.00,73.00 L 72.00,72.00 L 71.00,72.00 L 72.00,73.00 L 72.00,74.00 L 73.00,75.00 L 73.00,76.00 L 75.00,76.00 L 76.00,75.00 L 77.00,75.00 L 78.00,76.00 L 85.00,76.00 L 86.00,75.00 L 89.00,75.00 L 90.00,76.00 L 90.00,80.00 L 87.00,83.00 L 84.00,83.00 L 83.00,84.00 L 75.00,84.00 L 74.00,83.00 L 71.00,83.00 L 70.00,82.00 L 69.00,82.00 L 66.00,79.00 L 66.00,73.00 L 67.00,72.00 L 68.00,72.00 L 68.00,70.00 L 69.00,69.00 L 69.00,67.00 L 68.00,66.00" />
            <path d="M 52.00,22.00 L 54.00,22.00 L 55.00,21.00 L 59.00,21.00 L 60.00,22.00 L 61.00,22.00 L 63.00,24.00 L 64.00,24.00 L 67.00,27.00 L 67.00,28.00 L 66.00,29.00 L 65.00,29.00 L 61.00,33.00 L 61.00,34.00 L 60.00,35.00 L 60.00,36.00 L 59.00,37.00 L 58.00,37.00 L 57.00,36.00 L 57.00,34.00 L 56.00,33.00 L 56.00,32.00 L 54.00,30.00 L 53.00,30.00 L 52.00,29.00 L 50.00,29.00 L 48.00,27.00 L 48.00,26.00" />
            <path d="M 58.00,40.00 L 59.00,40.00 L 60.00,41.00 L 60.00,42.00 L 62.00,44.00 L 62.00,45.00 L 63.00,46.00 L 63.00,51.00 L 62.00,52.00 L 61.00,52.00 L 60.00,51.00 L 60.00,50.00 L 59.00,51.00 L 58.00,51.00 L 57.00,50.00 L 56.00,51.00 L 55.00,51.00 L 54.00,50.00 L 54.00,47.00 L 55.00,46.00 L 55.00,45.00 L 57.00,43.00 L 57.00,41.00" />
            <path d="M 53.00,76.00 L 54.00,75.00 L 56.00,75.00 L 57.00,74.00 L 65.00,74.00 L 66.00,75.00 L 66.00,80.00 L 65.00,81.00 L 64.00,81.00 L 63.00,82.00 L 59.00,82.00 L 58.00,81.00 L 58.00,80.00 L 59.00,79.00 L 62.00,79.00 L 63.00,78.00 L 59.00,78.00 L 58.00,79.00 L 58.00,81.00 L 57.00,82.00 L 56.00,82.00 L 53.00,79.00" />
            <path d="M 54.00,62.00 L 56.00,62.00 L 57.00,63.00 L 59.00,63.00 L 61.00,65.00 L 61.00,66.00 L 60.00,67.00 L 58.00,67.00 L 57.00,66.00 L 56.00,67.00 L 56.00,70.00 L 55.00,71.00 L 54.00,71.00 L 52.00,69.00 L 52.00,64.00" />
            <path d="M 68.00,66.00 L 69.00,67.00 L 69.00,69.00 L 68.00,70.00 L 68.00,71.00 L 67.00,72.00 L 66.00,72.00 L 65.00,71.00 L 65.00,69.00 L 66.00,68.00 L 66.00,67.00 L 67.00,66.00" />
            <path d="M 54.00,43.00 L 55.00,44.00 L 55.00,46.00 L 54.00,47.00 L 54.00,51.00 L 53.00,52.00 L 52.00,52.00 L 51.00,51.00 L 51.00,46.00 L 52.00,45.00 L 52.00,44.00 L 53.00,43.00" />
            <path d="M 54.00,72.00 L 55.00,71.00 L 56.00,71.00 L 57.00,70.00 L 58.00,70.00 L 60.00,72.00 L 60.00,73.00 L 59.00,74.00 L 55.00,74.00 L 54.00,73.00" />
            <path d="M 50.00,66.00 L 51.00,66.00 L 52.00,67.00 L 52.00,69.00 L 53.00,70.00 L 53.00,72.00 L 52.00,73.00 L 50.00,73.00 L 49.00,72.00 L 49.00,67.00" />
            <path d="M 60.00,71.00 L 61.00,70.00 L 63.00,70.00 L 64.00,71.00 L 64.00,73.00 L 63.00,74.00 L 61.00,74.00 L 60.00,73.00" />
            <path d="M 56.00,68.00 L 57.00,67.00 L 60.00,67.00 L 61.00,68.00 L 61.00,69.00 L 60.00,70.00 L 57.00,70.00 L 56.00,69.00" />
            <path d="M 61.00,66.00 L 62.00,65.00 L 65.00,65.00 L 66.00,66.00 L 66.00,68.00 L 64.00,70.00 L 63.00,70.00 L 61.00,68.00" />
            <path d="M 59.00,59.00 L 60.00,59.00 L 61.00,60.00 L 61.00,62.00 L 60.00,63.00 L 58.00,63.00 L 57.00,62.00 L 57.00,61.00" />
            <path d="M 59.00,56.00 L 60.00,57.00 L 60.00,58.00 L 58.00,60.00 L 57.00,60.00 L 56.00,59.00 L 56.00,58.00 L 58.00,56.00" />
  </g>
</svg>
